<?xml version="1.0" encoding="UTF-8" standalone="no"?>
<!DOCTYPE svg PUBLIC "-//W3C//DTD SVG 1.1//EN"
 "http://www.w3.org/Graphics/SVG/1.1/DTD/svg11.dtd">
<!-- Generated by graphviz version 12.2.1 (20241206.2353)
 -->
<!-- Title: Tree Pages: 1 -->
<svg width="350pt" height="325pt"
 viewBox="0.00 0.00 349.50 324.50" xmlns="http://www.w3.org/2000/svg" xmlns:xlink="http://www.w3.org/1999/xlink">
<g id="graph0" class="graph" transform="scale(1 1) rotate(0) translate(4 320.5)">
<title>Tree</title>
<polygon fill="white" stroke="none" points="-4,4 -4,-320.5 345.5,-320.5 345.5,4 -4,4"/>
<!-- 0 -->
<g id="node1" class="node">
<title>0</title>
<path fill="#ffffff" stroke="black" d="M208,-316.5C208,-316.5 64.5,-316.5 64.5,-316.5 58.5,-316.5 52.5,-310.5 52.5,-304.5 52.5,-304.5 52.5,-241.75 52.5,-241.75 52.5,-235.75 58.5,-229.75 64.5,-229.75 64.5,-229.75 208,-229.75 208,-229.75 214,-229.75 220,-235.75 220,-241.75 220,-241.75 220,-304.5 220,-304.5 220,-310.5 214,-316.5 208,-316.5"/>
<text text-anchor="middle" x="136.25" y="-299.2" font-family="Helvetica,sans-Serif" font-size="14.00">petal length (cm) &lt;= 2.45</text>
<text text-anchor="middle" x="136.25" y="-283.45" font-family="Helvetica,sans-Serif" font-size="14.00">gini = 0.667</text>
<text text-anchor="middle" x="136.25" y="-267.7" font-family="Helvetica,sans-Serif" font-size="14.00">samples = 150</text>
<text text-anchor="middle" x="136.25" y="-251.95" font-family="Helvetica,sans-Serif" font-size="14.00">value = [50, 50, 50]</text>
<text text-anchor="middle" x="136.25" y="-236.2" font-family="Helvetica,sans-Serif" font-size="14.00">class = setosa</text>
</g>
<!-- 1 -->
<g id="node2" class="node">
<title>1</title>
<path fill="#e58139" stroke="black" d="M104.5,-185.88C104.5,-185.88 12,-185.88 12,-185.88 6,-185.88 0,-179.88 0,-173.88 0,-173.88 0,-126.88 0,-126.88 0,-120.88 6,-114.88 12,-114.88 12,-114.88 104.5,-114.88 104.5,-114.88 110.5,-114.88 116.5,-120.88 116.5,-126.88 116.5,-126.88 116.5,-173.88 116.5,-173.88 116.5,-179.88 110.5,-185.88 104.5,-185.88"/>
<text text-anchor="middle" x="58.25" y="-168.57" font-family="Helvetica,sans-Serif" font-size="14.00">gini = 0.0</text>
<text text-anchor="middle" x="58.25" y="-152.82" font-family="Helvetica,sans-Serif" font-size="14.00">samples = 50</text>
<text text-anchor="middle" x="58.25" y="-137.07" font-family="Helvetica,sans-Serif" font-size="14.00">value = [50, 0, 0]</text>
<text text-anchor="middle" x="58.25" y="-121.33" font-family="Helvetica,sans-Serif" font-size="14.00">class = setosa</text>
</g>
<!-- 0&#45;&gt;1 -->
<g id="edge1" class="edge">
<title>0&#45;&gt;1</title>
<path fill="none" stroke="black" d="M108.75,-229.55C101.63,-218.52 93.94,-206.63 86.77,-195.52"/>
<polygon fill="black" stroke="black" points="89.81,-193.78 81.44,-187.27 83.93,-197.57 89.81,-193.78"/>
<text text-anchor="middle" x="75.36" y="-205.02" font-family="Helvetica,sans-Serif" font-size="14.00">True</text>
</g>
<!-- 2 -->
<g id="node3" class="node">
<title>2</title>
<path fill="#ffffff" stroke="black" d="M284.38,-193.75C284.38,-193.75 146.12,-193.75 146.12,-193.75 140.12,-193.75 134.12,-187.75 134.12,-181.75 134.12,-181.75 134.12,-119 134.12,-119 134.12,-113 140.12,-107 146.12,-107 146.12,-107 284.38,-107 284.38,-107 290.38,-107 296.38,-113 296.38,-119 296.38,-119 296.38,-181.75 296.38,-181.75 296.38,-187.75 290.38,-193.75 284.38,-193.75"/>
<text text-anchor="middle" x="215.25" y="-176.45" font-family="Helvetica,sans-Serif" font-size="14.00">petal width (cm) &lt;= 1.75</text>
<text text-anchor="middle" x="215.25" y="-160.7" font-family="Helvetica,sans-Serif" font-size="14.00">gini = 0.5</text>
<text text-anchor="middle" x="215.25" y="-144.95" font-family="Helvetica,sans-Serif" font-size="14.00">samples = 100</text>
<text text-anchor="middle" x="215.25" y="-129.2" font-family="Helvetica,sans-Serif" font-size="14.00">value = [0, 50, 50]</text>
<text text-anchor="middle" x="215.25" y="-113.45" font-family="Helvetica,sans-Serif" font-size="14.00">class = versicolor</text>
</g>
<!-- 0&#45;&gt;2 -->
<g id="edge2" class="edge">
<title>0&#45;&gt;2</title>
<path fill="none" stroke="black" d="M164.1,-229.55C169.65,-221.08 175.53,-212.09 181.26,-203.33"/>
<polygon fill="black" stroke="black" points="184.01,-205.52 186.55,-195.24 178.15,-201.69 184.01,-205.52"/>
<text text-anchor="middle" x="192.5" y="-213.02" font-family="Helvetica,sans-Serif" font-size="14.00">False</text>
</g>
<!-- 3 -->
<g id="node4" class="node">
<title>3</title>
<path fill="#4de88e" stroke="black" d="M195.38,-71C195.38,-71 99.12,-71 99.12,-71 93.12,-71 87.12,-65 87.12,-59 87.12,-59 87.12,-12 87.12,-12 87.12,-6 93.12,0 99.12,0 99.12,0 195.38,0 195.38,0 201.38,0 207.38,-6 207.38,-12 207.38,-12 207.38,-59 207.38,-59 207.38,-65 201.38,-71 195.38,-71"/>
<text text-anchor="middle" x="147.25" y="-53.7" font-family="Helvetica,sans-Serif" font-size="14.00">gini = 0.168</text>
<text text-anchor="middle" x="147.25" y="-37.95" font-family="Helvetica,sans-Serif" font-size="14.00">samples = 54</text>
<text text-anchor="middle" x="147.25" y="-22.2" font-family="Helvetica,sans-Serif" font-size="14.00">value = [0, 49, 5]</text>
<text text-anchor="middle" x="147.25" y="-6.45" font-family="Helvetica,sans-Serif" font-size="14.00">class = versicolor</text>
</g>
<!-- 2&#45;&gt;3 -->
<g id="edge3" class="edge">
<title>2&#45;&gt;3</title>
<path fill="none" stroke="black" d="M189.54,-106.7C184.46,-98.27 179.11,-89.39 174,-80.9"/>
<polygon fill="black" stroke="black" points="177.07,-79.21 168.91,-72.45 171.07,-82.83 177.07,-79.21"/>
</g>
<!-- 4 -->
<g id="node5" class="node">
<title>4</title>
<path fill="#843de6" stroke="black" d="M329.5,-71C329.5,-71 237,-71 237,-71 231,-71 225,-65 225,-59 225,-59 225,-12 225,-12 225,-6 231,0 237,0 237,0 329.5,0 329.5,0 335.5,0 341.5,-6 341.5,-12 341.5,-12 341.5,-59 341.5,-59 341.5,-65 335.5,-71 329.5,-71"/>
<text text-anchor="middle" x="283.25" y="-53.7" font-family="Helvetica,sans-Serif" font-size="14.00">gini = 0.043</text>
<text text-anchor="middle" x="283.25" y="-37.95" font-family="Helvetica,sans-Serif" font-size="14.00">samples = 46</text>
<text text-anchor="middle" x="283.25" y="-22.2" font-family="Helvetica,sans-Serif" font-size="14.00">value = [0, 1, 45]</text>
<text text-anchor="middle" x="283.25" y="-6.45" font-family="Helvetica,sans-Serif" font-size="14.00">class = virginica</text>
</g>
<!-- 2&#45;&gt;4 -->
<g id="edge4" class="edge">
<title>2&#45;&gt;4</title>
<path fill="none" stroke="black" d="M240.96,-106.7C246.04,-98.27 251.39,-89.39 256.5,-80.9"/>
<polygon fill="black" stroke="black" points="259.43,-82.83 261.59,-72.45 253.43,-79.21 259.43,-82.83"/>
</g>
</g>
</svg>
