<?xml version="1.0" encoding="UTF-8" standalone="no"?>
<!DOCTYPE svg PUBLIC "-//W3C//DTD SVG 1.1//EN"
 "http://www.w3.org/Graphics/SVG/1.1/DTD/svg11.dtd">
<!-- Generated by graphviz version 12.2.1 (20241206.2353)
 -->
<!-- Title: Tree Pages: 1 -->
<svg width="651pt" height="277pt"
 viewBox="0.00 0.00 651.25 277.25" xmlns="http://www.w3.org/2000/svg" xmlns:xlink="http://www.w3.org/1999/xlink">
<g id="graph0" class="graph" transform="scale(1 1) rotate(0) translate(4 273.25)">
<title>Tree</title>
<polygon fill="white" stroke="none" points="-4,4 -4,-273.25 647.25,-273.25 647.25,4 -4,4"/>
<!-- 0 -->
<g id="node1" class="node">
<title>0</title>
<path fill="#f9e3d3" stroke="black" d="M388.25,-269.25C388.25,-269.25 262,-269.25 262,-269.25 256,-269.25 250,-263.25 250,-257.25 250,-257.25 250,-210.25 250,-210.25 250,-204.25 256,-198.25 262,-198.25 262,-198.25 388.25,-198.25 388.25,-198.25 394.25,-198.25 400.25,-204.25 400.25,-210.25 400.25,-210.25 400.25,-257.25 400.25,-257.25 400.25,-263.25 394.25,-269.25 388.25,-269.25"/>
<text text-anchor="middle" x="325.12" y="-251.95" font-family="Helvetica,sans-Serif" font-size="14.00">x1 &lt;= 0.343</text>
<text text-anchor="middle" x="325.12" y="-236.2" font-family="Helvetica,sans-Serif" font-size="14.00">squared_error = 0.006</text>
<text text-anchor="middle" x="325.12" y="-220.45" font-family="Helvetica,sans-Serif" font-size="14.00">samples = 200</text>
<text text-anchor="middle" x="325.12" y="-204.7" font-family="Helvetica,sans-Serif" font-size="14.00">value = 0.08</text>
</g>
<!-- 1 -->
<g id="node2" class="node">
<title>1</title>
<path fill="#fbede3" stroke="black" d="M304.25,-162.25C304.25,-162.25 178,-162.25 178,-162.25 172,-162.25 166,-156.25 166,-150.25 166,-150.25 166,-103.25 166,-103.25 166,-97.25 172,-91.25 178,-91.25 178,-91.25 304.25,-91.25 304.25,-91.25 310.25,-91.25 316.25,-97.25 316.25,-103.25 316.25,-103.25 316.25,-150.25 316.25,-150.25 316.25,-156.25 310.25,-162.25 304.25,-162.25"/>
<text text-anchor="middle" x="241.12" y="-144.95" font-family="Helvetica,sans-Serif" font-size="14.00">x1 &lt;= &#45;0.302</text>
<text text-anchor="middle" x="241.12" y="-129.2" font-family="Helvetica,sans-Serif" font-size="14.00">squared_error = 0.004</text>
<text text-anchor="middle" x="241.12" y="-113.45" font-family="Helvetica,sans-Serif" font-size="14.00">samples = 175</text>
<text text-anchor="middle" x="241.12" y="-97.7" font-family="Helvetica,sans-Serif" font-size="14.00">value = 0.065</text>
</g>
<!-- 0&#45;&gt;1 -->
<g id="edge1" class="edge">
<title>0&#45;&gt;1</title>
<path fill="none" stroke="black" d="M297.15,-197.79C290.42,-189.37 283.15,-180.28 276.14,-171.52"/>
<polygon fill="black" stroke="black" points="278.9,-169.36 269.92,-163.74 273.43,-173.74 278.9,-169.36"/>
<text text-anchor="middle" x="266.21" y="-181.98" font-family="Helvetica,sans-Serif" font-size="14.00">True</text>
</g>
<!-- 4 -->
<g id="node5" class="node">
<title>4</title>
<path fill="#eb9e67" stroke="black" d="M472.25,-162.25C472.25,-162.25 346,-162.25 346,-162.25 340,-162.25 334,-156.25 334,-150.25 334,-150.25 334,-103.25 334,-103.25 334,-97.25 340,-91.25 346,-91.25 346,-91.25 472.25,-91.25 472.25,-91.25 478.25,-91.25 484.25,-97.25 484.25,-103.25 484.25,-103.25 484.25,-150.25 484.25,-150.25 484.25,-156.25 478.25,-162.25 472.25,-162.25"/>
<text text-anchor="middle" x="409.12" y="-144.95" font-family="Helvetica,sans-Serif" font-size="14.00">x1 &lt;= 0.431</text>
<text text-anchor="middle" x="409.12" y="-129.2" font-family="Helvetica,sans-Serif" font-size="14.00">squared_error = 0.002</text>
<text text-anchor="middle" x="409.12" y="-113.45" font-family="Helvetica,sans-Serif" font-size="14.00">samples = 25</text>
<text text-anchor="middle" x="409.12" y="-97.7" font-family="Helvetica,sans-Serif" font-size="14.00">value = 0.185</text>
</g>
<!-- 0&#45;&gt;4 -->
<g id="edge4" class="edge">
<title>0&#45;&gt;4</title>
<path fill="none" stroke="black" d="M353.1,-197.79C359.83,-189.37 367.1,-180.28 374.11,-171.52"/>
<polygon fill="black" stroke="black" points="376.82,-173.74 380.33,-163.74 371.35,-169.36 376.82,-173.74"/>
<text text-anchor="middle" x="384.04" y="-181.98" font-family="Helvetica,sans-Serif" font-size="14.00">False</text>
</g>
<!-- 2 -->
<g id="node3" class="node">
<title>2</title>
<path fill="#f0b58a" stroke="black" d="M138.25,-55.25C138.25,-55.25 12,-55.25 12,-55.25 6,-55.25 0,-49.25 0,-43.25 0,-43.25 0,-12 0,-12 0,-6 6,0 12,0 12,0 138.25,0 138.25,0 144.25,0 150.25,-6 150.25,-12 150.25,-12 150.25,-43.25 150.25,-43.25 150.25,-49.25 144.25,-55.25 138.25,-55.25"/>
<text text-anchor="middle" x="75.12" y="-37.95" font-family="Helvetica,sans-Serif" font-size="14.00">squared_error = 0.003</text>
<text text-anchor="middle" x="75.12" y="-22.2" font-family="Helvetica,sans-Serif" font-size="14.00">samples = 42</text>
<text text-anchor="middle" x="75.12" y="-6.45" font-family="Helvetica,sans-Serif" font-size="14.00">value = 0.151</text>
</g>
<!-- 1&#45;&gt;2 -->
<g id="edge2" class="edge">
<title>1&#45;&gt;2</title>
<path fill="none" stroke="black" d="M181.66,-90.96C165.25,-81.36 147.51,-70.97 131.29,-61.49"/>
<polygon fill="black" stroke="black" points="133.12,-58.5 122.72,-56.47 129.59,-64.54 133.12,-58.5"/>
</g>
<!-- 3 -->
<g id="node4" class="node">
<title>3</title>
<path fill="#ffffff" stroke="black" d="M306.25,-55.25C306.25,-55.25 180,-55.25 180,-55.25 174,-55.25 168,-49.25 168,-43.25 168,-43.25 168,-12 168,-12 168,-6 174,0 180,0 180,0 306.25,0 306.25,0 312.25,0 318.25,-6 318.25,-12 318.25,-12 318.25,-43.25 318.25,-43.25 318.25,-49.25 312.25,-55.25 306.25,-55.25"/>
<text text-anchor="middle" x="243.12" y="-37.95" font-family="Helvetica,sans-Serif" font-size="14.00">squared_error = 0.002</text>
<text text-anchor="middle" x="243.12" y="-22.2" font-family="Helvetica,sans-Serif" font-size="14.00">samples = 133</text>
<text text-anchor="middle" x="243.12" y="-6.45" font-family="Helvetica,sans-Serif" font-size="14.00">value = 0.038</text>
</g>
<!-- 1&#45;&gt;3 -->
<g id="edge3" class="edge">
<title>1&#45;&gt;3</title>
<path fill="none" stroke="black" d="M241.84,-90.96C242,-83.13 242.17,-74.79 242.34,-66.83"/>
<polygon fill="black" stroke="black" points="245.83,-67.14 242.54,-57.07 238.83,-66.99 245.83,-67.14"/>
</g>
<!-- 5 -->
<g id="node6" class="node">
<title>5</title>
<path fill="#f0b58b" stroke="black" d="M462.75,-55.25C462.75,-55.25 351.5,-55.25 351.5,-55.25 345.5,-55.25 339.5,-49.25 339.5,-43.25 339.5,-43.25 339.5,-12 339.5,-12 339.5,-6 345.5,0 351.5,0 351.5,0 462.75,0 462.75,0 468.75,0 474.75,-6 474.75,-12 474.75,-12 474.75,-43.25 474.75,-43.25 474.75,-49.25 468.75,-55.25 462.75,-55.25"/>
<text text-anchor="middle" x="407.12" y="-37.95" font-family="Helvetica,sans-Serif" font-size="14.00">squared_error = 0.0</text>
<text text-anchor="middle" x="407.12" y="-22.2" font-family="Helvetica,sans-Serif" font-size="14.00">samples = 14</text>
<text text-anchor="middle" x="407.12" y="-6.45" font-family="Helvetica,sans-Serif" font-size="14.00">value = 0.15</text>
</g>
<!-- 4&#45;&gt;5 -->
<g id="edge5" class="edge">
<title>4&#45;&gt;5</title>
<path fill="none" stroke="black" d="M408.41,-90.96C408.25,-83.13 408.08,-74.79 407.91,-66.83"/>
<polygon fill="black" stroke="black" points="411.42,-66.99 407.71,-57.07 404.42,-67.14 411.42,-66.99"/>
</g>
<!-- 6 -->
<g id="node7" class="node">
<title>6</title>
<path fill="#e58139" stroke="black" d="M631.25,-55.25C631.25,-55.25 505,-55.25 505,-55.25 499,-55.25 493,-49.25 493,-43.25 493,-43.25 493,-12 493,-12 493,-6 499,0 505,0 505,0 631.25,0 631.25,0 637.25,0 643.25,-6 643.25,-12 643.25,-12 643.25,-43.25 643.25,-43.25 643.25,-49.25 637.25,-55.25 631.25,-55.25"/>
<text text-anchor="middle" x="568.12" y="-37.95" font-family="Helvetica,sans-Serif" font-size="14.00">squared_error = 0.001</text>
<text text-anchor="middle" x="568.12" y="-22.2" font-family="Helvetica,sans-Serif" font-size="14.00">samples = 11</text>
<text text-anchor="middle" x="568.12" y="-6.45" font-family="Helvetica,sans-Serif" font-size="14.00">value = 0.229</text>
</g>
<!-- 4&#45;&gt;6 -->
<g id="edge6" class="edge">
<title>4&#45;&gt;6</title>
<path fill="none" stroke="black" d="M466.08,-90.96C481.8,-81.36 498.8,-70.97 514.33,-61.49"/>
<polygon fill="black" stroke="black" points="515.78,-64.7 522.49,-56.5 512.14,-58.72 515.78,-64.7"/>
</g>
</g>
</svg>
